<svg xmlns="http://www.w3.org/2000/svg" xmlns:xlink="http://www.w3.org/1999/xlink" width="500" zoomAndPan="magnify" viewBox="0 0 375 374.999991" height="500" preserveAspectRatio="xMidYMid meet" version="1.0"><defs><clipPath id="6a147d58d5"><path d="M 187.5 0 C 83.945312 0 0 83.945312 0 187.5 C 0 291.054688 83.945312 375 187.5 375 C 291.054688 375 375 291.054688 375 187.5 C 375 83.945312 291.054688 0 187.5 0 Z M 187.5 0 " clip-rule="nonzero"/></clipPath><clipPath id="f1b080599f"><path d="M 0 0 L 375 0 L 375 375 L 0 375 Z M 0 0 " clip-rule="nonzero"/></clipPath><clipPath id="5cff2439a8"><path d="M 187.5 0 C 83.945312 0 0 83.945312 0 187.5 C 0 291.054688 83.945312 375 187.5 375 C 291.054688 375 375 291.054688 375 187.5 C 375 83.945312 291.054688 0 187.5 0 Z M 187.5 0 " clip-rule="nonzero"/></clipPath><clipPath id="3ee0891ac7"><rect x="0" width="375" y="0" height="375"/></clipPath></defs><g clip-path="url(#6a147d58d5)"><g transform="matrix(1, 0, 0, 1, 0, 0)"><g clip-path="url(#3ee0891ac7)"><g clip-path="url(#f1b080599f)"><g clip-path="url(#5cff2439a8)"><rect x="-82.5" width="540" fill="#000000" height="539.999987" y="-82.499998" fill-opacity="1"/></g></g></g></g></g><path fill="#fefefe" d="M 179.476562 42.351562 C 192.136719 43.753906 192.136719 43.753906 197.09375 49.703125 C 198.074219 51.671875 199.050781 53.640625 200.058594 55.671875 C 201.175781 57.859375 202.289062 60.046875 203.441406 62.300781 C 204.574219 64.644531 205.707031 66.988281 206.875 69.402344 C 208.0625 71.777344 209.25 74.148438 210.476562 76.59375 C 212.851562 81.347656 215.210938 86.113281 217.554688 90.886719 C 220.394531 96.605469 223.335938 102.234375 226.390625 107.839844 C 228.671875 112.097656 228.671875 112.097656 231 116.445312 C 232.316406 118.882812 233.636719 121.320312 234.996094 123.832031 C 237.878906 132 237.355469 136.210938 234.617188 144.359375 C 228.414062 151.25 228.414062 151.25 220.832031 158.144531 C 198.355469 178.894531 186.089844 204.804688 173.445312 232.238281 C 170.609375 238.382812 167.753906 244.523438 164.882812 250.652344 C 163.648438 253.339844 162.410156 256.027344 161.132812 258.792969 C 151.574219 276.492188 135.617188 279.835938 117.480469 286.492188 C 112.296875 288.402344 107.136719 290.378906 101.980469 292.355469 C 97.066406 294.175781 97.066406 294.175781 92.050781 296.035156 C 87.558594 297.710938 87.558594 297.710938 82.976562 299.421875 C 74.316406 301.609375 69.398438 301.261719 60.925781 298.75 C 62.476562 286.5 65.589844 276.972656 71.039062 265.914062 C 72.574219 262.773438 74.105469 259.632812 75.6875 256.394531 C 77.371094 252.996094 79.054688 249.59375 80.742188 246.195312 C 82.492188 242.628906 84.238281 239.058594 85.980469 235.492188 C 89.605469 228.078125 93.238281 220.675781 96.878906 213.273438 C 105.207031 196.320312 113.386719 179.296875 121.582031 162.28125 C 124.746094 155.71875 127.910156 149.160156 131.078125 142.601562 C 132.679688 139.285156 134.28125 135.964844 135.886719 132.648438 C 150.414062 102.546875 164.945312 72.449219 179.476562 42.351562 Z M 179.476562 42.351562 " fill-opacity="1" fill-rule="nonzero"/><path fill="#fdfdfd" d="M 237.375 141.601562 C 239.195312 141.601562 241.011719 141.601562 242.886719 141.601562 C 244.082031 144.070312 245.273438 146.535156 246.5 149.078125 C 251.054688 158.503906 255.613281 167.921875 260.171875 177.34375 C 263.210938 183.625 266.246094 189.910156 269.277344 196.195312 C 278.0625 214.363281 286.867188 232.503906 296.164062 250.417969 C 297.460938 252.929688 298.761719 255.441406 300.097656 258.027344 C 302.445312 262.542969 304.828125 267.039062 307.246094 271.515625 C 314.722656 285.914062 314.722656 285.914062 313.871094 296.035156 C 313.191406 297.84375 312.511719 299.648438 311.8125 301.507812 C 293.230469 299.839844 276.558594 293.871094 259.085938 287.550781 C 256.132812 286.5625 253.179688 285.578125 250.136719 284.5625 C 233.273438 278.441406 223.246094 273.425781 214.984375 257.164062 C 214.183594 255.421875 213.382812 253.675781 212.5625 251.882812 C 210.355469 248.261719 210.355469 248.261719 208.101562 244.570312 C 199.261719 228.511719 196.433594 217.28125 201.53125 199.5 C 208.320312 178.265625 221.617188 157.359375 237.375 141.601562 Z M 237.375 141.601562 " fill-opacity="1" fill-rule="nonzero"/></svg>